<svg width="257" height="32" viewBox="0 0 257 32" fill="none" xmlns="http://www.w3.org/2000/svg">
<path d="M15.804 30.432C13.836 30.432 12 30.084 10.296 29.388C8.592 28.692 7.104 27.72 5.832 26.472C4.56 25.224 3.564 23.76 2.844 22.08C2.148 20.376 1.8 18.54 1.8 16.572C1.8 14.58 2.148 12.744 2.844 11.064C3.54 9.384 4.524 7.92 5.796 6.672C7.068 5.424 8.556 4.464 10.26 3.792C11.964 3.096 13.812 2.748 15.804 2.748C17.796 2.748 19.644 3.096 21.348 3.792C23.052 4.488 24.54 5.46 25.812 6.708C27.084 7.932 28.068 9.384 28.764 11.064C29.484 12.744 29.844 14.58 29.844 16.572C29.844 18.54 29.484 20.376 28.764 22.08C28.044 23.76 27.048 25.224 25.776 26.472C24.504 27.72 23.016 28.692 21.312 29.388C19.632 30.084 17.796 30.432 15.804 30.432ZM15.804 25.968C17.124 25.968 18.336 25.74 19.44 25.284C20.544 24.804 21.504 24.144 22.32 23.304C23.16 22.464 23.796 21.468 24.228 20.316C24.684 19.164 24.912 17.916 24.912 16.572C24.912 15.228 24.684 13.992 24.228 12.864C23.796 11.712 23.16 10.716 22.32 9.876C21.504 9.012 20.544 8.352 19.44 7.896C18.336 7.44 17.124 7.212 15.804 7.212C14.508 7.212 13.308 7.44 12.204 7.896C11.1 8.352 10.128 9.012 9.288 9.876C8.472 10.716 7.836 11.712 7.38 12.864C6.924 13.992 6.696 15.228 6.696 16.572C6.696 17.916 6.924 19.164 7.38 20.316C7.836 21.468 8.472 22.464 9.288 23.304C10.128 24.144 11.1 24.804 12.204 25.284C13.308 25.74 14.508 25.968 15.804 25.968ZM34.1975 30V3.18H38.8775L48.9215 16.824H46.6895L56.5175 3.18H61.1975V30H56.2655V8.76L58.1735 9.228L47.9855 22.8H47.4095L37.4735 9.228L39.0935 8.76V30H34.1975ZM66.3303 30V3.18H84.2223V7.5H71.2263V14.916H82.6023V19.236H71.2263V30H66.3303Z" fill="#211887"/>
<path d="M99.146 14.168C98.3807 14.168 97.6667 14.0327 97.004 13.762C96.3413 13.4913 95.7627 13.1133 95.268 12.628C94.7733 12.1427 94.386 11.5733 94.106 10.92C93.8353 10.2573 93.7 9.54333 93.7 8.778C93.7 8.00333 93.8353 7.28933 94.106 6.636C94.3767 5.98267 94.7593 5.41333 95.254 4.928C95.7487 4.44267 96.3273 4.06933 96.99 3.808C97.6527 3.53733 98.3713 3.402 99.146 3.402C99.9207 3.402 100.639 3.53733 101.302 3.808C101.965 4.07867 102.543 4.45667 103.038 4.942C103.533 5.418 103.915 5.98267 104.186 6.636C104.466 7.28933 104.606 8.00333 104.606 8.778C104.606 9.54333 104.466 10.2573 104.186 10.92C103.906 11.5733 103.519 12.1427 103.024 12.628C102.529 13.1133 101.951 13.4913 101.288 13.762C100.635 14.0327 99.9207 14.168 99.146 14.168ZM99.146 12.432C99.6593 12.432 100.131 12.3433 100.56 12.166C100.989 11.9793 101.363 11.7227 101.68 11.396C102.007 11.0693 102.254 10.682 102.422 10.234C102.599 9.786 102.688 9.30067 102.688 8.778C102.688 8.25533 102.599 7.77467 102.422 7.336C102.254 6.888 102.007 6.50067 101.68 6.174C101.363 5.838 100.989 5.58133 100.56 5.404C100.131 5.22667 99.6593 5.138 99.146 5.138C98.642 5.138 98.1753 5.22667 97.746 5.404C97.3167 5.58133 96.9387 5.838 96.612 6.174C96.2947 6.50067 96.0473 6.888 95.87 7.336C95.6927 7.77467 95.604 8.25533 95.604 8.778C95.604 9.30067 95.6927 9.786 95.87 10.234C96.0473 10.682 96.2947 11.0693 96.612 11.396C96.9387 11.7227 97.3167 11.9793 97.746 12.166C98.1753 12.3433 98.642 12.432 99.146 12.432ZM110.303 14.168C109.752 14.168 109.244 14.0607 108.777 13.846C108.32 13.622 107.956 13.3047 107.685 12.894L107.867 12.53V14H106.145V3.402H107.979V7.896L107.699 7.518C107.96 7.10733 108.315 6.79 108.763 6.566C109.211 6.33267 109.729 6.216 110.317 6.216C111.036 6.216 111.684 6.39333 112.263 6.748C112.842 7.10267 113.299 7.57867 113.635 8.176C113.98 8.77333 114.153 9.44533 114.153 10.192C114.153 10.9293 113.985 11.6013 113.649 12.208C113.313 12.8147 112.856 13.2953 112.277 13.65C111.698 13.9953 111.04 14.168 110.303 14.168ZM110.093 12.488C110.513 12.488 110.886 12.39 111.213 12.194C111.54 11.998 111.792 11.7273 111.969 11.382C112.156 11.0367 112.249 10.64 112.249 10.192C112.249 9.744 112.156 9.352 111.969 9.016C111.792 8.67067 111.54 8.4 111.213 8.204C110.886 7.99867 110.513 7.896 110.093 7.896C109.692 7.896 109.328 7.994 109.001 8.19C108.684 8.386 108.432 8.66133 108.245 9.016C108.068 9.36133 107.979 9.75333 107.979 10.192C107.979 10.64 108.068 11.0367 108.245 11.382C108.432 11.7273 108.684 11.998 109.001 12.194C109.328 12.39 109.692 12.488 110.093 12.488ZM118.449 14.168C117.637 14.168 116.928 13.9767 116.321 13.594C115.724 13.202 115.313 12.6747 115.089 12.012L116.461 11.354C116.657 11.7833 116.928 12.1193 117.273 12.362C117.628 12.6047 118.02 12.726 118.449 12.726C118.785 12.726 119.051 12.6513 119.247 12.502C119.443 12.3527 119.541 12.1567 119.541 11.914C119.541 11.7647 119.499 11.6433 119.415 11.55C119.341 11.4473 119.233 11.3633 119.093 11.298C118.963 11.2233 118.818 11.1627 118.659 11.116L117.413 10.766C116.769 10.5793 116.279 10.2947 115.943 9.912C115.617 9.52933 115.453 9.07667 115.453 8.554C115.453 8.08733 115.57 7.68133 115.803 7.336C116.046 6.98133 116.377 6.706 116.797 6.51C117.227 6.314 117.717 6.216 118.267 6.216C118.986 6.216 119.621 6.38867 120.171 6.734C120.722 7.07933 121.114 7.56467 121.347 8.19L119.947 8.848C119.817 8.50267 119.597 8.22733 119.289 8.022C118.981 7.81667 118.636 7.714 118.253 7.714C117.945 7.714 117.703 7.784 117.525 7.924C117.348 8.064 117.259 8.246 117.259 8.47C117.259 8.61 117.297 8.73133 117.371 8.834C117.446 8.93667 117.549 9.02067 117.679 9.086C117.819 9.15133 117.978 9.212 118.155 9.268L119.373 9.632C119.999 9.81867 120.479 10.0987 120.815 10.472C121.161 10.8453 121.333 11.3027 121.333 11.844C121.333 12.3013 121.212 12.7073 120.969 13.062C120.727 13.4073 120.391 13.678 119.961 13.874C119.532 14.07 119.028 14.168 118.449 14.168ZM126.355 14.168C125.571 14.168 124.885 13.9907 124.297 13.636C123.709 13.2813 123.251 12.8007 122.925 12.194C122.598 11.5873 122.435 10.9153 122.435 10.178C122.435 9.41267 122.598 8.736 122.925 8.148C123.261 7.55067 123.713 7.07933 124.283 6.734C124.861 6.38867 125.505 6.216 126.215 6.216C126.812 6.216 127.335 6.314 127.783 6.51C128.24 6.706 128.627 6.97667 128.945 7.322C129.262 7.66733 129.505 8.064 129.673 8.512C129.841 8.95067 129.925 9.42667 129.925 9.94C129.925 10.0707 129.915 10.206 129.897 10.346C129.887 10.486 129.864 10.6073 129.827 10.71H123.947V9.31H128.791L127.923 9.968C128.007 9.53867 127.983 9.156 127.853 8.82C127.731 8.484 127.526 8.218 127.237 8.022C126.957 7.826 126.616 7.728 126.215 7.728C125.832 7.728 125.491 7.826 125.193 8.022C124.894 8.20867 124.665 8.48867 124.507 8.862C124.357 9.226 124.301 9.66933 124.339 10.192C124.301 10.6587 124.362 11.074 124.521 11.438C124.689 11.7927 124.931 12.068 125.249 12.264C125.575 12.46 125.949 12.558 126.369 12.558C126.789 12.558 127.143 12.4693 127.433 12.292C127.731 12.1147 127.965 11.8767 128.133 11.578L129.617 12.306C129.467 12.67 129.234 12.992 128.917 13.272C128.599 13.552 128.221 13.7713 127.783 13.93C127.353 14.0887 126.877 14.168 126.355 14.168ZM131.315 14V6.384H133.037V8.078L132.897 7.826C133.074 7.25667 133.35 6.86 133.723 6.636C134.106 6.412 134.563 6.3 135.095 6.3H135.543V7.924H134.885C134.362 7.924 133.942 8.08733 133.625 8.414C133.308 8.73133 133.149 9.17933 133.149 9.758V14H131.315ZM138.847 14L135.851 6.384H137.853L140.023 12.376H139.281L141.465 6.384H143.467L140.471 14H138.847ZM146.518 14.168C145.986 14.168 145.524 14.0793 145.132 13.902C144.74 13.7247 144.436 13.4727 144.222 13.146C144.007 12.81 143.9 12.4227 143.9 11.984C143.9 11.564 143.993 11.1907 144.18 10.864C144.366 10.528 144.656 10.248 145.048 10.024C145.44 9.8 145.934 9.64133 146.532 9.548L149.024 9.142V10.542L146.882 10.906C146.518 10.9713 146.247 11.088 146.07 11.256C145.892 11.424 145.804 11.6433 145.804 11.914C145.804 12.1753 145.902 12.3853 146.098 12.544C146.303 12.6933 146.555 12.768 146.854 12.768C147.236 12.768 147.572 12.6887 147.862 12.53C148.16 12.362 148.389 12.1333 148.548 11.844C148.716 11.5547 148.8 11.2373 148.8 10.892V8.932C148.8 8.60533 148.669 8.33467 148.408 8.12C148.156 7.896 147.82 7.784 147.4 7.784C147.008 7.784 146.658 7.89133 146.35 8.106C146.051 8.31133 145.832 8.58667 145.692 8.932L144.194 8.204C144.343 7.80267 144.576 7.45733 144.894 7.168C145.22 6.86933 145.603 6.636 146.042 6.468C146.48 6.3 146.956 6.216 147.47 6.216C148.095 6.216 148.646 6.33267 149.122 6.566C149.598 6.79 149.966 7.10733 150.228 7.518C150.498 7.91933 150.634 8.39067 150.634 8.932V14H148.898V12.698L149.29 12.67C149.094 12.9967 148.86 13.272 148.59 13.496C148.319 13.7107 148.011 13.8787 147.666 14C147.32 14.112 146.938 14.168 146.518 14.168ZM155.664 14.084C154.805 14.084 154.138 13.8507 153.662 13.384C153.195 12.908 152.962 12.2407 152.962 11.382V8.022H151.646V6.384H151.786C152.159 6.384 152.449 6.286 152.654 6.09C152.859 5.894 152.962 5.60933 152.962 5.236V4.648H154.796V6.384H156.546V8.022H154.796V11.284C154.796 11.536 154.838 11.7507 154.922 11.928C155.015 12.1053 155.155 12.2407 155.342 12.334C155.538 12.4273 155.785 12.474 156.084 12.474C156.149 12.474 156.224 12.4693 156.308 12.46C156.401 12.4507 156.49 12.4413 156.574 12.432V14C156.443 14.0187 156.294 14.0373 156.126 14.056C155.958 14.0747 155.804 14.084 155.664 14.084ZM161.631 14.168C160.884 14.168 160.203 13.9953 159.587 13.65C158.98 13.3047 158.495 12.8333 158.131 12.236C157.776 11.6387 157.599 10.9573 157.599 10.192C157.599 9.42667 157.776 8.74533 158.131 8.148C158.495 7.55067 158.98 7.07933 159.587 6.734C160.193 6.38867 160.875 6.216 161.631 6.216C162.377 6.216 163.054 6.38867 163.661 6.734C164.267 7.07933 164.748 7.55067 165.103 8.148C165.467 8.736 165.649 9.41733 165.649 10.192C165.649 10.9573 165.467 11.6387 165.103 12.236C164.739 12.8333 164.253 13.3047 163.647 13.65C163.04 13.9953 162.368 14.168 161.631 14.168ZM161.631 12.488C162.041 12.488 162.401 12.39 162.709 12.194C163.026 11.998 163.273 11.7273 163.451 11.382C163.637 11.0273 163.731 10.6307 163.731 10.192C163.731 9.744 163.637 9.352 163.451 9.016C163.273 8.67067 163.026 8.4 162.709 8.204C162.401 7.99867 162.041 7.896 161.631 7.896C161.211 7.896 160.842 7.99867 160.525 8.204C160.207 8.4 159.955 8.67067 159.769 9.016C159.591 9.352 159.503 9.744 159.503 10.192C159.503 10.6307 159.591 11.0273 159.769 11.382C159.955 11.7273 160.207 11.998 160.525 12.194C160.842 12.39 161.211 12.488 161.631 12.488ZM160.721 5.04L161.631 2.618H164.011L162.527 5.04H160.721ZM167.04 14V6.384H168.762V8.078L168.622 7.826C168.799 7.25667 169.074 6.86 169.448 6.636C169.83 6.412 170.288 6.3 170.82 6.3H171.268V7.924H170.61C170.087 7.924 169.667 8.08733 169.35 8.414C169.032 8.73133 168.874 9.17933 168.874 9.758V14H167.04ZM172.276 14V6.384H174.11V14H172.276ZM172.276 5.53V3.57H174.11V5.53H172.276ZM179.527 14.168C178.781 14.168 178.099 13.9953 177.483 13.65C176.877 13.3047 176.391 12.8333 176.027 12.236C175.673 11.6387 175.495 10.9573 175.495 10.192C175.495 9.42667 175.673 8.74533 176.027 8.148C176.391 7.55067 176.877 7.07933 177.483 6.734C178.09 6.38867 178.771 6.216 179.527 6.216C180.274 6.216 180.951 6.38867 181.557 6.734C182.164 7.07933 182.645 7.55067 182.999 8.148C183.363 8.736 183.545 9.41733 183.545 10.192C183.545 10.9573 183.363 11.6387 182.999 12.236C182.635 12.8333 182.15 13.3047 181.543 13.65C180.937 13.9953 180.265 14.168 179.527 14.168ZM179.527 12.488C179.938 12.488 180.297 12.39 180.605 12.194C180.923 11.998 181.17 11.7273 181.347 11.382C181.534 11.0273 181.627 10.6307 181.627 10.192C181.627 9.744 181.534 9.352 181.347 9.016C181.17 8.67067 180.923 8.4 180.605 8.204C180.297 7.99867 179.938 7.896 179.527 7.896C179.107 7.896 178.739 7.99867 178.421 8.204C178.104 8.4 177.852 8.67067 177.665 9.016C177.488 9.352 177.399 9.744 177.399 10.192C177.399 10.6307 177.488 11.0273 177.665 11.382C177.852 11.7273 178.104 11.998 178.421 12.194C178.739 12.39 179.107 12.488 179.527 12.488ZM190.966 14.168C190.229 14.168 189.571 13.9953 188.992 13.65C188.414 13.2953 187.956 12.8147 187.62 12.208C187.284 11.6013 187.116 10.9293 187.116 10.192C187.116 9.44533 187.284 8.77333 187.62 8.176C187.956 7.57867 188.414 7.10267 188.992 6.748C189.58 6.39333 190.234 6.216 190.952 6.216C191.531 6.216 192.044 6.33267 192.492 6.566C192.95 6.79 193.309 7.10733 193.57 7.518L193.29 7.896V3.402H195.124V14H193.388V12.53L193.584 12.894C193.323 13.3047 192.959 13.622 192.492 13.846C192.026 14.0607 191.517 14.168 190.966 14.168ZM191.162 12.488C191.582 12.488 191.951 12.39 192.268 12.194C192.586 11.998 192.833 11.7273 193.01 11.382C193.197 11.0367 193.29 10.64 193.29 10.192C193.29 9.75333 193.197 9.36133 193.01 9.016C192.833 8.66133 192.586 8.386 192.268 8.19C191.951 7.994 191.582 7.896 191.162 7.896C190.752 7.896 190.383 7.99867 190.056 8.204C189.73 8.4 189.473 8.67067 189.286 9.016C189.109 9.352 189.02 9.744 189.02 10.192C189.02 10.64 189.109 11.0367 189.286 11.382C189.473 11.7273 189.73 11.998 190.056 12.194C190.383 12.39 190.752 12.488 191.162 12.488ZM199.141 14.168C198.609 14.168 198.147 14.0793 197.755 13.902C197.363 13.7247 197.059 13.4727 196.845 13.146C196.63 12.81 196.523 12.4227 196.523 11.984C196.523 11.564 196.616 11.1907 196.803 10.864C196.989 10.528 197.279 10.248 197.671 10.024C198.063 9.8 198.557 9.64133 199.155 9.548L201.647 9.142V10.542L199.505 10.906C199.141 10.9713 198.87 11.088 198.693 11.256C198.515 11.424 198.427 11.6433 198.427 11.914C198.427 12.1753 198.525 12.3853 198.721 12.544C198.926 12.6933 199.178 12.768 199.477 12.768C199.859 12.768 200.195 12.6887 200.485 12.53C200.783 12.362 201.012 12.1333 201.171 11.844C201.339 11.5547 201.423 11.2373 201.423 10.892V8.932C201.423 8.60533 201.292 8.33467 201.031 8.12C200.779 7.896 200.443 7.784 200.023 7.784C199.631 7.784 199.281 7.89133 198.973 8.106C198.674 8.31133 198.455 8.58667 198.315 8.932L196.817 8.204C196.966 7.80267 197.199 7.45733 197.517 7.168C197.843 6.86933 198.226 6.636 198.665 6.468C199.103 6.3 199.579 6.216 200.093 6.216C200.718 6.216 201.269 6.33267 201.745 6.566C202.221 6.79 202.589 7.10733 202.851 7.518C203.121 7.91933 203.257 8.39067 203.257 8.932V14H201.521V12.698L201.913 12.67C201.717 12.9967 201.483 13.272 201.213 13.496C200.942 13.7107 200.634 13.8787 200.289 14C199.943 14.112 199.561 14.168 199.141 14.168ZM207.594 14V3.57H209.414L213.32 8.876H212.452L216.274 3.57H218.094V14H216.176V5.74L216.918 5.922L212.956 11.2H212.732L208.868 5.922L209.498 5.74V14H207.594ZM222.652 14.168C222.064 14.168 221.551 14.0373 221.112 13.776C220.683 13.5147 220.351 13.1507 220.118 12.684C219.894 12.2173 219.782 11.6713 219.782 11.046V6.384H221.616V10.892C221.616 11.2093 221.677 11.4893 221.798 11.732C221.929 11.9653 222.111 12.152 222.344 12.292C222.587 12.4227 222.857 12.488 223.156 12.488C223.455 12.488 223.721 12.4227 223.954 12.292C224.187 12.152 224.369 11.9607 224.5 11.718C224.631 11.4753 224.696 11.186 224.696 10.85V6.384H226.53V14H224.794V12.502L224.948 12.768C224.771 13.2347 224.477 13.5847 224.066 13.818C223.665 14.0513 223.193 14.168 222.652 14.168ZM228.235 14V3.402H230.069V14H228.235ZM231.762 14V3.402H233.596V7.882L233.344 7.616C233.522 7.15867 233.811 6.81333 234.212 6.58C234.623 6.33733 235.099 6.216 235.64 6.216C236.2 6.216 236.695 6.33733 237.124 6.58C237.563 6.82267 237.904 7.16333 238.146 7.602C238.389 8.03133 238.51 8.53067 238.51 9.1V14H236.676V9.534C236.676 9.198 236.611 8.90867 236.48 8.666C236.35 8.42333 236.168 8.23667 235.934 8.106C235.71 7.966 235.444 7.896 235.136 7.896C234.838 7.896 234.572 7.966 234.338 8.106C234.105 8.23667 233.923 8.42333 233.792 8.666C233.662 8.90867 233.596 9.198 233.596 9.534V14H231.762ZM243.673 14.168C242.889 14.168 242.203 13.9907 241.615 13.636C241.027 13.2813 240.57 12.8007 240.243 12.194C239.916 11.5873 239.753 10.9153 239.753 10.178C239.753 9.41267 239.916 8.736 240.243 8.148C240.579 7.55067 241.032 7.07933 241.601 6.734C242.18 6.38867 242.824 6.216 243.533 6.216C244.13 6.216 244.653 6.314 245.101 6.51C245.558 6.706 245.946 6.97667 246.263 7.322C246.58 7.66733 246.823 8.064 246.991 8.512C247.159 8.95067 247.243 9.42667 247.243 9.94C247.243 10.0707 247.234 10.206 247.215 10.346C247.206 10.486 247.182 10.6073 247.145 10.71H241.265V9.31H246.109L245.241 9.968C245.325 9.53867 245.302 9.156 245.171 8.82C245.05 8.484 244.844 8.218 244.555 8.022C244.275 7.826 243.934 7.728 243.533 7.728C243.15 7.728 242.81 7.826 242.511 8.022C242.212 8.20867 241.984 8.48867 241.825 8.862C241.676 9.226 241.62 9.66933 241.657 10.192C241.62 10.6587 241.68 11.074 241.839 11.438C242.007 11.7927 242.25 12.068 242.567 12.264C242.894 12.46 243.267 12.558 243.687 12.558C244.107 12.558 244.462 12.4693 244.751 12.292C245.05 12.1147 245.283 11.8767 245.451 11.578L246.935 12.306C246.786 12.67 246.552 12.992 246.235 13.272C245.918 13.552 245.54 13.7713 245.101 13.93C244.672 14.0887 244.196 14.168 243.673 14.168ZM248.633 14V6.384H250.355V8.078L250.215 7.826C250.393 7.25667 250.668 6.86 251.041 6.636C251.424 6.412 251.881 6.3 252.413 6.3H252.861V7.924H252.203C251.681 7.924 251.261 8.08733 250.943 8.414C250.626 8.73133 250.467 9.17933 250.467 9.758V14H248.633ZM97.396 30.168C96.6587 30.168 96.0007 29.9953 95.422 29.65C94.8433 29.2953 94.386 28.8147 94.05 28.208C93.714 27.6013 93.546 26.9293 93.546 26.192C93.546 25.4453 93.714 24.7733 94.05 24.176C94.386 23.5787 94.8433 23.1027 95.422 22.748C96.01 22.3933 96.6633 22.216 97.382 22.216C97.9607 22.216 98.474 22.3327 98.922 22.566C99.3793 22.79 99.7387 23.1073 100 23.518L99.72 23.896V19.402H101.554V30H99.818V28.53L100.014 28.894C99.7527 29.3047 99.3887 29.622 98.922 29.846C98.4553 30.0607 97.9467 30.168 97.396 30.168ZM97.592 28.488C98.012 28.488 98.3807 28.39 98.698 28.194C99.0153 27.998 99.2627 27.7273 99.44 27.382C99.6267 27.0367 99.72 26.64 99.72 26.192C99.72 25.7533 99.6267 25.3613 99.44 25.016C99.2627 24.6613 99.0153 24.386 98.698 24.19C98.3807 23.994 98.012 23.896 97.592 23.896C97.1813 23.896 96.8127 23.9987 96.486 24.204C96.1593 24.4 95.9027 24.6707 95.716 25.016C95.5387 25.352 95.45 25.744 95.45 26.192C95.45 26.64 95.5387 27.0367 95.716 27.382C95.9027 27.7273 96.1593 27.998 96.486 28.194C96.8127 28.39 97.1813 28.488 97.592 28.488ZM106.872 30.168C106.088 30.168 105.402 29.9907 104.814 29.636C104.226 29.2813 103.769 28.8007 103.442 28.194C103.116 27.5873 102.952 26.9153 102.952 26.178C102.952 25.4127 103.116 24.736 103.442 24.148C103.778 23.5507 104.231 23.0793 104.8 22.734C105.379 22.3887 106.023 22.216 106.732 22.216C107.33 22.216 107.852 22.314 108.3 22.51C108.758 22.706 109.145 22.9767 109.462 23.322C109.78 23.6673 110.022 24.064 110.19 24.512C110.358 24.9507 110.442 25.4267 110.442 25.94C110.442 26.0707 110.433 26.206 110.414 26.346C110.405 26.486 110.382 26.6073 110.344 26.71H104.464V25.31H109.308L108.44 25.968C108.524 25.5387 108.501 25.156 108.37 24.82C108.249 24.484 108.044 24.218 107.754 24.022C107.474 23.826 107.134 23.728 106.732 23.728C106.35 23.728 106.009 23.826 105.71 24.022C105.412 24.2087 105.183 24.4887 105.024 24.862C104.875 25.226 104.819 25.6693 104.856 26.192C104.819 26.6587 104.88 27.074 105.038 27.438C105.206 27.7927 105.449 28.068 105.766 28.264C106.093 28.46 106.466 28.558 106.886 28.558C107.306 28.558 107.661 28.4693 107.95 28.292C108.249 28.1147 108.482 27.8767 108.65 27.578L110.134 28.306C109.985 28.67 109.752 28.992 109.434 29.272C109.117 29.552 108.739 29.7713 108.3 29.93C107.871 30.0887 107.395 30.168 106.872 30.168ZM114.475 30V19.57H121.433V21.25H116.379V24.134H120.803V25.814H116.379V30H114.475ZM126.084 30.168C125.337 30.168 124.656 29.9953 124.04 29.65C123.433 29.3047 122.948 28.8333 122.584 28.236C122.229 27.6387 122.052 26.9573 122.052 26.192C122.052 25.4267 122.229 24.7453 122.584 24.148C122.948 23.5507 123.433 23.0793 124.04 22.734C124.647 22.3887 125.328 22.216 126.084 22.216C126.831 22.216 127.507 22.3887 128.114 22.734C128.721 23.0793 129.201 23.5507 129.556 24.148C129.92 24.736 130.102 25.4173 130.102 26.192C130.102 26.9573 129.92 27.6387 129.556 28.236C129.192 28.8333 128.707 29.3047 128.1 29.65C127.493 29.9953 126.821 30.168 126.084 30.168ZM126.084 28.488C126.495 28.488 126.854 28.39 127.162 28.194C127.479 27.998 127.727 27.7273 127.904 27.382C128.091 27.0273 128.184 26.6307 128.184 26.192C128.184 25.744 128.091 25.352 127.904 25.016C127.727 24.6707 127.479 24.4 127.162 24.204C126.854 23.9987 126.495 23.896 126.084 23.896C125.664 23.896 125.295 23.9987 124.978 24.204C124.661 24.4 124.409 24.6707 124.222 25.016C124.045 25.352 123.956 25.744 123.956 26.192C123.956 26.6307 124.045 27.0273 124.222 27.382C124.409 27.7273 124.661 27.998 124.978 28.194C125.295 28.39 125.664 28.488 126.084 28.488ZM131.493 30V22.384H133.215V24.078L133.075 23.826C133.252 23.2567 133.527 22.86 133.901 22.636C134.283 22.412 134.741 22.3 135.273 22.3H135.721V23.924H135.063C134.54 23.924 134.12 24.0873 133.803 24.414C133.485 24.7313 133.327 25.1793 133.327 25.758V30H131.493ZM140.406 30.084C139.547 30.084 138.88 29.8507 138.404 29.384C137.937 28.908 137.704 28.2407 137.704 27.382V24.022H136.388V22.384H136.528C136.901 22.384 137.191 22.286 137.396 22.09C137.601 21.894 137.704 21.6093 137.704 21.236V20.648H139.538V22.384H141.288V24.022H139.538V27.284C139.538 27.536 139.58 27.7507 139.664 27.928C139.757 28.1053 139.897 28.2407 140.084 28.334C140.28 28.4273 140.527 28.474 140.826 28.474C140.891 28.474 140.966 28.4693 141.05 28.46C141.143 28.4507 141.232 28.4413 141.316 28.432V30C141.185 30.0187 141.036 30.0373 140.868 30.056C140.7 30.0747 140.546 30.084 140.406 30.084ZM145 30.168C144.468 30.168 144.006 30.0793 143.614 29.902C143.222 29.7247 142.919 29.4727 142.704 29.146C142.489 28.81 142.382 28.4227 142.382 27.984C142.382 27.564 142.475 27.1907 142.662 26.864C142.849 26.528 143.138 26.248 143.53 26.024C143.922 25.8 144.417 25.6413 145.014 25.548L147.506 25.142V26.542L145.364 26.906C145 26.9713 144.729 27.088 144.552 27.256C144.375 27.424 144.286 27.6433 144.286 27.914C144.286 28.1753 144.384 28.3853 144.58 28.544C144.785 28.6933 145.037 28.768 145.336 28.768C145.719 28.768 146.055 28.6887 146.344 28.53C146.643 28.362 146.871 28.1333 147.03 27.844C147.198 27.5547 147.282 27.2373 147.282 26.892V24.932C147.282 24.6053 147.151 24.3347 146.89 24.12C146.638 23.896 146.302 23.784 145.882 23.784C145.49 23.784 145.14 23.8913 144.832 24.106C144.533 24.3113 144.314 24.5867 144.174 24.932L142.676 24.204C142.825 23.8027 143.059 23.4573 143.376 23.168C143.703 22.8693 144.085 22.636 144.524 22.468C144.963 22.3 145.439 22.216 145.952 22.216C146.577 22.216 147.128 22.3327 147.604 22.566C148.08 22.79 148.449 23.1073 148.71 23.518C148.981 23.9193 149.116 24.3907 149.116 24.932V30H147.38V28.698L147.772 28.67C147.576 28.9967 147.343 29.272 147.072 29.496C146.801 29.7107 146.493 29.8787 146.148 30C145.803 30.112 145.42 30.168 145 30.168ZM150.811 30V19.402H152.645V30H150.811ZM157.95 30.168C157.166 30.168 156.48 29.9907 155.892 29.636C155.304 29.2813 154.847 28.8007 154.52 28.194C154.194 27.5873 154.03 26.9153 154.03 26.178C154.03 25.4127 154.194 24.736 154.52 24.148C154.856 23.5507 155.309 23.0793 155.878 22.734C156.457 22.3887 157.101 22.216 157.81 22.216C158.408 22.216 158.93 22.314 159.378 22.51C159.836 22.706 160.223 22.9767 160.54 23.322C160.858 23.6673 161.1 24.064 161.268 24.512C161.436 24.9507 161.52 25.4267 161.52 25.94C161.52 26.0707 161.511 26.206 161.492 26.346C161.483 26.486 161.46 26.6073 161.422 26.71H155.542V25.31H160.386L159.518 25.968C159.602 25.5387 159.579 25.156 159.448 24.82C159.327 24.484 159.122 24.218 158.832 24.022C158.552 23.826 158.212 23.728 157.81 23.728C157.428 23.728 157.087 23.826 156.788 24.022C156.49 24.2087 156.261 24.4887 156.102 24.862C155.953 25.226 155.897 25.6693 155.934 26.192C155.897 26.6587 155.958 27.074 156.116 27.438C156.284 27.7927 156.527 28.068 156.844 28.264C157.171 28.46 157.544 28.558 157.964 28.558C158.384 28.558 158.739 28.4693 159.028 28.292C159.327 28.1147 159.56 27.8767 159.728 27.578L161.212 28.306C161.063 28.67 160.83 28.992 160.512 29.272C160.195 29.552 159.817 29.7713 159.378 29.93C158.949 30.0887 158.473 30.168 157.95 30.168ZM162.253 30V28.516L166.677 23.392L166.957 24.022H162.449V22.384H168.581V23.882L164.241 29.006L163.961 28.376H168.609V30H162.253ZM171.961 30.168C171.429 30.168 170.967 30.0793 170.575 29.902C170.183 29.7247 169.88 29.4727 169.665 29.146C169.45 28.81 169.343 28.4227 169.343 27.984C169.343 27.564 169.436 27.1907 169.623 26.864C169.81 26.528 170.099 26.248 170.491 26.024C170.883 25.8 171.378 25.6413 171.975 25.548L174.467 25.142V26.542L172.325 26.906C171.961 26.9713 171.69 27.088 171.513 27.256C171.336 27.424 171.247 27.6433 171.247 27.914C171.247 28.1753 171.345 28.3853 171.541 28.544C171.746 28.6933 171.998 28.768 172.297 28.768C172.68 28.768 173.016 28.6887 173.305 28.53C173.604 28.362 173.832 28.1333 173.991 27.844C174.159 27.5547 174.243 27.2373 174.243 26.892V24.932C174.243 24.6053 174.112 24.3347 173.851 24.12C173.599 23.896 173.263 23.784 172.843 23.784C172.451 23.784 172.101 23.8913 171.793 24.106C171.494 24.3113 171.275 24.5867 171.135 24.932L169.637 24.204C169.786 23.8027 170.02 23.4573 170.337 23.168C170.664 22.8693 171.046 22.636 171.485 22.468C171.924 22.3 172.4 22.216 172.913 22.216C173.538 22.216 174.089 22.3327 174.565 22.566C175.041 22.79 175.41 23.1073 175.671 23.518C175.942 23.9193 176.077 24.3907 176.077 24.932V30H174.341V28.698L174.733 28.67C174.537 28.9967 174.304 29.272 174.033 29.496C173.762 29.7107 173.454 29.8787 173.109 30C172.764 30.112 172.381 30.168 171.961 30.168Z" fill="#211887"/>
</svg>
