<svg width="22" height="28" viewBox="0 0 22 28" fill="none" xmlns="http://www.w3.org/2000/svg">
<g id="book">
<path id="Vector" d="M20.7992 6.29922V25.7992C20.7992 26.1392 20.5392 26.3992 20.1992 26.3992H3.19922C2.09922 26.3992 1.19922 25.4992 1.19922 24.3992V3.69922C1.19922 4.25922 1.41922 4.75922 1.77922 5.11922C2.13922 5.47922 2.63922 5.69922 3.19922 5.69922H20.1992C20.5392 5.69922 20.7992 5.95922 20.7992 6.29922Z" fill="#B1AEDF" stroke="#473EAD" stroke-miterlimit="10" stroke-linecap="round"/>
<path id="Vector_2" d="M3.19996 5.69922C2.63996 5.69922 2.13996 5.47922 1.77996 5.11922C1.37996 4.71922 1.15996 4.17922 1.19996 3.55922C1.27996 2.49922 2.19996 1.69922 3.25996 1.69922H20.2C20.54 1.69922 20.8 1.95922 20.8 2.29922V4.19922" stroke="#473EAD" stroke-miterlimit="10" stroke-linecap="round"/>
<path id="Vector_3" d="M17.7008 9.69922H4.30078V15.0992H17.7008V9.69922Z" fill="white" stroke="#473EAD" stroke-miterlimit="10" stroke-linecap="round"/>
</g>
</svg>
